<mxfile host="app.diagrams.net" modified="2021-04-30T11:12:06.984Z" agent="5.0 (Windows NT 10.0; Win64; x64) AppleWebKit/537.36 (KHTML, like Gecko) Chrome/90.0.4430.85 Safari/537.36 Edg/90.0.818.49" etag="Y-QtDiUqZl9RMCNzPrBE" version="14.6.6" type="github">
  <diagram name="Page-1" id="e7e014a7-5840-1c2e-5031-d8a46d1fe8dd">
    <mxGraphModel dx="738" dy="832" grid="1" gridSize="10" guides="1" tooltips="1" connect="1" arrows="1" fold="1" page="1" pageScale="1" pageWidth="1169" pageHeight="826" background="#ffffff" math="0" shadow="0">
      <root>
        <mxCell id="0" />
        <mxCell id="1" parent="0" />
        <mxCell id="I_bpKBugNi6BmCwwu1qq-77" style="edgeStyle=orthogonalEdgeStyle;rounded=0;orthogonalLoop=1;jettySize=auto;html=1;exitX=0.5;exitY=1;exitDx=0;exitDy=0;entryX=0.5;entryY=0;entryDx=0;entryDy=0;" edge="1" parent="1" source="5" target="I_bpKBugNi6BmCwwu1qq-54">
          <mxGeometry relative="1" as="geometry" />
        </mxCell>
        <mxCell id="5" value="" style="ellipse;shape=startState;fillColor=#000000;strokeColor=#ff0000;" parent="1" vertex="1">
          <mxGeometry x="80" y="40" width="30" height="30" as="geometry" />
        </mxCell>
        <mxCell id="I_bpKBugNi6BmCwwu1qq-80" style="edgeStyle=orthogonalEdgeStyle;rounded=0;orthogonalLoop=1;jettySize=auto;html=1;exitX=0.5;exitY=1;exitDx=0;exitDy=0;entryX=0.5;entryY=0;entryDx=0;entryDy=0;" edge="1" parent="1" source="I_bpKBugNi6BmCwwu1qq-54" target="I_bpKBugNi6BmCwwu1qq-78">
          <mxGeometry relative="1" as="geometry" />
        </mxCell>
        <mxCell id="I_bpKBugNi6BmCwwu1qq-54" value="&lt;span style=&quot;color: rgb(51 , 51 , 51) ; font-family: &amp;#34;open sans&amp;#34; , &amp;#34;clear sans&amp;#34; , &amp;#34;helvetica neue&amp;#34; , &amp;#34;helvetica&amp;#34; , &amp;#34;arial&amp;#34; , sans-serif ; font-size: 16px ; background-color: rgb(255 , 255 , 255)&quot;&gt;动态检测引擎检测出灰色应用，或检测任务结束&lt;/span&gt;" style="rounded=0;whiteSpace=wrap;html=1;" vertex="1" parent="1">
          <mxGeometry x="35" y="110" width="120" height="60" as="geometry" />
        </mxCell>
        <mxCell id="I_bpKBugNi6BmCwwu1qq-64" value="&lt;font color=&quot;#333333&quot; face=&quot;open sans, clear sans, helvetica neue, helvetica, arial, sans-serif&quot;&gt;&lt;span style=&quot;font-size: 16px&quot;&gt;删除通知&lt;/span&gt;&lt;/font&gt;" style="edgeStyle=orthogonalEdgeStyle;rounded=0;orthogonalLoop=1;jettySize=auto;html=1;exitX=0.5;exitY=1;exitDx=0;exitDy=0;entryX=0.5;entryY=0;entryDx=0;entryDy=0;" edge="1" parent="1" source="I_bpKBugNi6BmCwwu1qq-63" target="I_bpKBugNi6BmCwwu1qq-88">
          <mxGeometry x="-0.1111" relative="1" as="geometry">
            <mxPoint x="239.91999999999996" y="510" as="targetPoint" />
            <mxPoint as="offset" />
          </mxGeometry>
        </mxCell>
        <mxCell id="I_bpKBugNi6BmCwwu1qq-76" value="阅读通知" style="edgeStyle=orthogonalEdgeStyle;rounded=0;orthogonalLoop=1;jettySize=auto;html=1;exitX=0;exitY=0.5;exitDx=0;exitDy=0;entryX=0;entryY=0.5;entryDx=0;entryDy=0;fontSize=16;" edge="1" parent="1" source="I_bpKBugNi6BmCwwu1qq-63" target="I_bpKBugNi6BmCwwu1qq-88">
          <mxGeometry x="0.019" relative="1" as="geometry">
            <mxPoint x="224.92000000000405" y="525" as="targetPoint" />
            <Array as="points">
              <mxPoint x="160" y="400" />
              <mxPoint x="160" y="500" />
            </Array>
            <mxPoint as="offset" />
          </mxGeometry>
        </mxCell>
        <mxCell id="I_bpKBugNi6BmCwwu1qq-63" value="" style="rhombus;whiteSpace=wrap;html=1;" vertex="1" parent="1">
          <mxGeometry x="217.42" y="380" width="45" height="40" as="geometry" />
        </mxCell>
        <mxCell id="I_bpKBugNi6BmCwwu1qq-85" style="edgeStyle=orthogonalEdgeStyle;rounded=0;orthogonalLoop=1;jettySize=auto;html=1;exitX=1;exitY=0.5;exitDx=0;exitDy=0;entryX=0;entryY=0.5;entryDx=0;entryDy=0;" edge="1" parent="1" source="I_bpKBugNi6BmCwwu1qq-78" target="I_bpKBugNi6BmCwwu1qq-83">
          <mxGeometry relative="1" as="geometry" />
        </mxCell>
        <mxCell id="I_bpKBugNi6BmCwwu1qq-78" value="&lt;font color=&quot;#333333&quot; face=&quot;open sans, clear sans, helvetica neue, helvetica, arial, sans-serif&quot;&gt;&lt;span style=&quot;font-size: 16px ; background-color: rgb(255 , 255 , 255)&quot;&gt;检测平台向用户发送通知&lt;/span&gt;&lt;/font&gt;" style="rounded=0;whiteSpace=wrap;html=1;" vertex="1" parent="1">
          <mxGeometry x="35" y="200" width="120" height="60" as="geometry" />
        </mxCell>
        <mxCell id="I_bpKBugNi6BmCwwu1qq-86" style="edgeStyle=orthogonalEdgeStyle;rounded=0;orthogonalLoop=1;jettySize=auto;html=1;exitX=0.5;exitY=1;exitDx=0;exitDy=0;entryX=0.5;entryY=0;entryDx=0;entryDy=0;" edge="1" parent="1" source="I_bpKBugNi6BmCwwu1qq-83" target="I_bpKBugNi6BmCwwu1qq-84">
          <mxGeometry relative="1" as="geometry" />
        </mxCell>
        <mxCell id="I_bpKBugNi6BmCwwu1qq-83" value="&lt;font color=&quot;#333333&quot; face=&quot;open sans, clear sans, helvetica neue, helvetica, arial, sans-serif&quot;&gt;&lt;span style=&quot;font-size: 16px ; background-color: rgb(255 , 255 , 255)&quot;&gt;用户进入通知列表&lt;/span&gt;&lt;/font&gt;" style="rounded=0;whiteSpace=wrap;html=1;" vertex="1" parent="1">
          <mxGeometry x="180" y="200" width="120" height="60" as="geometry" />
        </mxCell>
        <mxCell id="I_bpKBugNi6BmCwwu1qq-87" style="edgeStyle=orthogonalEdgeStyle;rounded=0;orthogonalLoop=1;jettySize=auto;html=1;exitX=0.5;exitY=1;exitDx=0;exitDy=0;entryX=0.5;entryY=0;entryDx=0;entryDy=0;" edge="1" parent="1" source="I_bpKBugNi6BmCwwu1qq-84" target="I_bpKBugNi6BmCwwu1qq-63">
          <mxGeometry relative="1" as="geometry" />
        </mxCell>
        <mxCell id="I_bpKBugNi6BmCwwu1qq-84" value="&lt;font color=&quot;#333333&quot; face=&quot;open sans, clear sans, helvetica neue, helvetica, arial, sans-serif&quot;&gt;&lt;span style=&quot;font-size: 16px ; background-color: rgb(255 , 255 , 255)&quot;&gt;选择通知&lt;/span&gt;&lt;/font&gt;" style="rounded=0;whiteSpace=wrap;html=1;" vertex="1" parent="1">
          <mxGeometry x="180" y="290" width="120" height="60" as="geometry" />
        </mxCell>
        <mxCell id="I_bpKBugNi6BmCwwu1qq-90" value="&lt;font style=&quot;font-size: 16px&quot;&gt;继续阅读&lt;/font&gt;" style="edgeStyle=orthogonalEdgeStyle;rounded=0;orthogonalLoop=1;jettySize=auto;html=1;exitX=1;exitY=0.5;exitDx=0;exitDy=0;entryX=1;entryY=0.5;entryDx=0;entryDy=0;" edge="1" parent="1" source="I_bpKBugNi6BmCwwu1qq-88" target="I_bpKBugNi6BmCwwu1qq-83">
          <mxGeometry relative="1" as="geometry">
            <mxPoint x="360" y="240" as="targetPoint" />
          </mxGeometry>
        </mxCell>
        <mxCell id="I_bpKBugNi6BmCwwu1qq-92" value="&lt;font style=&quot;font-size: 16px&quot;&gt;退出通知列表&lt;/font&gt;" style="edgeStyle=orthogonalEdgeStyle;rounded=0;orthogonalLoop=1;jettySize=auto;html=1;exitX=0.5;exitY=1;exitDx=0;exitDy=0;entryX=0.5;entryY=0;entryDx=0;entryDy=0;" edge="1" parent="1" source="I_bpKBugNi6BmCwwu1qq-88" target="I_bpKBugNi6BmCwwu1qq-93">
          <mxGeometry relative="1" as="geometry">
            <mxPoint x="240.46153846153845" y="550" as="targetPoint" />
          </mxGeometry>
        </mxCell>
        <mxCell id="I_bpKBugNi6BmCwwu1qq-88" value="" style="rhombus;whiteSpace=wrap;html=1;" vertex="1" parent="1">
          <mxGeometry x="217.42" y="480" width="45" height="40" as="geometry" />
        </mxCell>
        <mxCell id="I_bpKBugNi6BmCwwu1qq-93" value="" style="ellipse;html=1;shape=endState;fillColor=#000000;strokeColor=#ff0000;" vertex="1" parent="1">
          <mxGeometry x="225" y="580" width="30" height="30" as="geometry" />
        </mxCell>
      </root>
    </mxGraphModel>
  </diagram>
</mxfile>
